# This file uses centimeters as units for non-parametric coordinates.

mtllib arm3_cover.mtl
g default
v 0.229690 -0.413016 -0.088998
v 0.195386 -0.390730 -0.169284
v 0.141956 -0.356018 -0.232999
v 0.074631 -0.312278 -0.273907
v -0.000000 -0.263793 -0.288003
v -0.074631 -0.215307 -0.273907
v -0.141956 -0.171568 -0.232999
v -0.195386 -0.136856 -0.169284
v -0.229690 -0.114569 -0.088998
v -0.241510 -0.106890 -0.000000
v -0.229690 -0.114569 0.088998
v -0.195386 -0.136856 0.169284
v -0.141956 -0.171568 0.232999
v -0.074631 -0.215307 0.273907
v -0.000000 -0.263793 0.288003
v 0.074631 -0.312278 0.273907
v 0.141956 -0.356018 0.232999
v 0.195386 -0.390730 0.169284
v 0.229690 -0.413016 0.088998
v 0.241510 -0.420695 -0.000000
v 0.407032 0.263793 -0.132253
v 0.346242 0.263793 -0.251559
v 0.251559 0.263793 -0.346242
v 0.132253 0.263793 -0.407032
v 0.000000 0.263793 -0.427978
v -0.132253 0.263793 -0.407032
v -0.251559 0.263793 -0.346242
v -0.346242 0.263793 -0.251559
v -0.407031 0.263793 -0.132253
v -0.427978 0.263793 0.000000
v -0.407031 0.263793 0.132253
v -0.346242 0.263793 0.251559
v -0.251559 0.263793 0.346242
v -0.132253 0.263793 0.407031
v -0.000000 0.263793 0.427978
v 0.132252 0.263793 0.407031
v 0.251559 0.263793 0.346242
v 0.346242 0.263793 0.251559
v 0.407031 0.263793 0.132253
v 0.427978 0.263793 0.000000
v -0.000000 -0.263793 -0.000000
v 0.000000 0.263793 0.000000
v 0.371845 0.229988 -0.124600
v 0.316310 0.221096 -0.237003
v 0.229813 0.207246 -0.326206
v 0.120820 0.189794 -0.383478
v -0.000000 0.170449 -0.403213
v -0.120820 0.151103 -0.383478
v -0.229813 0.133651 -0.326206
v -0.316310 0.119802 -0.237003
v -0.371845 0.110910 -0.124600
v -0.390981 0.107846 -0.000000
v -0.371845 0.110910 0.124600
v -0.316310 0.119802 0.237002
v -0.229813 0.133651 0.326206
v -0.120820 0.151103 0.383478
v -0.000000 0.170449 0.403213
v 0.120820 0.189794 0.383478
v 0.229813 0.207246 0.326206
v 0.316310 0.221096 0.237002
v 0.371845 0.229988 0.124600
v 0.390981 0.233052 -0.000000
vt 0.648603 0.107966
vt 0.626409 0.064408
vt 0.591842 0.029841
vt 0.548284 0.007647
vt 0.500000 -0.000000
vt 0.451716 0.007647
vt 0.408159 0.029841
vt 0.373591 0.064409
vt 0.351397 0.107966
vt 0.343750 0.156250
vt 0.351397 0.204534
vt 0.373591 0.248091
vt 0.408159 0.282659
vt 0.451716 0.304853
vt 0.500000 0.312500
vt 0.548284 0.304853
vt 0.591841 0.282659
vt 0.626409 0.248091
vt 0.648603 0.204534
vt 0.656250 0.156250
vt 0.375000 0.312500
vt 0.387500 0.312500
vt 0.400000 0.312500
vt 0.412500 0.312500
vt 0.425000 0.312500
vt 0.437500 0.312500
vt 0.450000 0.312500
vt 0.462500 0.312500
vt 0.475000 0.312500
vt 0.487500 0.312500
vt 0.500000 0.312500
vt 0.512500 0.312500
vt 0.525000 0.312500
vt 0.537500 0.312500
vt 0.550000 0.312500
vt 0.562500 0.312500
vt 0.575000 0.312500
vt 0.587500 0.312500
vt 0.600000 0.312500
vt 0.612500 0.312500
vt 0.625000 0.312500
vt 0.375000 0.688440
vt 0.387500 0.688440
vt 0.400000 0.688440
vt 0.412500 0.688440
vt 0.425000 0.688440
vt 0.437500 0.688440
vt 0.450000 0.688440
vt 0.462500 0.688440
vt 0.475000 0.688440
vt 0.487500 0.688440
vt 0.500000 0.688440
vt 0.512500 0.688440
vt 0.525000 0.688440
vt 0.537500 0.688440
vt 0.550000 0.688440
vt 0.562500 0.688440
vt 0.575000 0.688440
vt 0.587500 0.688440
vt 0.600000 0.688440
vt 0.612500 0.688440
vt 0.625000 0.688440
vt 0.648603 0.795466
vt 0.626409 0.751908
vt 0.591842 0.717341
vt 0.548284 0.695147
vt 0.500000 0.687500
vt 0.451716 0.695147
vt 0.408159 0.717341
vt 0.373591 0.751909
vt 0.351397 0.795466
vt 0.343750 0.843750
vt 0.351397 0.892034
vt 0.373591 0.935591
vt 0.408159 0.970159
vt 0.451716 0.992353
vt 0.500000 1.000000
vt 0.548284 0.992353
vt 0.591841 0.970159
vt 0.626409 0.935591
vt 0.648603 0.892034
vt 0.656250 0.843750
vt 0.500000 0.150000
vt 0.500000 0.837500
vt 0.625000 0.621926
vt 0.375000 0.621926
vt 0.387500 0.621926
vt 0.400000 0.621926
vt 0.412500 0.621926
vt 0.425000 0.621926
vt 0.437500 0.621926
vt 0.450000 0.621926
vt 0.462500 0.621926
vt 0.475000 0.621926
vt 0.487500 0.621926
vt 0.500000 0.621926
vt 0.512500 0.621926
vt 0.525000 0.621926
vt 0.537500 0.621926
vt 0.550000 0.621926
vt 0.562500 0.621926
vt 0.575000 0.621926
vt 0.587500 0.621926
vt 0.600000 0.621926
vt 0.612500 0.621926
vn 0.922495 -0.271503 -0.274388
vn 0.803250 -0.262317 -0.534770
vn 0.657876 -0.602617 -0.451721
vn 0.671646 -0.712254 -0.203926
vn 0.600612 -0.251860 -0.758836
vn 0.538430 -0.457075 -0.707937
vn 0.322103 -0.246977 -0.913921
vn 0.302277 -0.333789 -0.892868
vn -0.002657 -0.255565 -0.966788
vn 0.003020 -0.259462 -0.965748
vn -0.323415 -0.282935 -0.902968
vn -0.303895 -0.226806 -0.925314
vn -0.589481 -0.326878 -0.738690
vn -0.578243 -0.219346 -0.785826
vn -0.772660 -0.375894 -0.511567
vn -0.791995 -0.223118 -0.568298
vn -0.872865 -0.413844 -0.258535
vn -0.926888 -0.228794 -0.297544
vn -0.903779 -0.427999 0.000000
vn -0.972900 -0.231228 0.000000
vn -0.872865 -0.413844 0.258535
vn -0.926888 -0.228794 0.297544
vn -0.772660 -0.375894 0.511567
vn -0.791994 -0.223119 0.568298
vn -0.589481 -0.326878 0.738690
vn -0.578242 -0.219346 0.785826
vn -0.323415 -0.282935 0.902968
vn -0.303895 -0.226806 0.925314
vn -0.002657 -0.255565 0.966788
vn 0.003020 -0.259462 0.965748
vn 0.322103 -0.246977 0.913921
vn 0.302277 -0.333789 0.892868
vn 0.600612 -0.251860 0.758836
vn 0.538431 -0.457075 0.707937
vn 0.803250 -0.262317 0.534770
vn 0.657876 -0.602617 0.451721
vn 0.922495 -0.271503 0.274389
vn 0.671646 -0.712253 0.203927
vn 0.961430 -0.275051 0.000001
vn 0.661002 -0.750384 0.000001
vn -0.544796 -0.838569 -0.000000
vn -0.544796 -0.838569 0.000000
vn -0.544796 -0.838569 0.000000
vn -0.544796 -0.838569 -0.000000
vn -0.544795 -0.838569 0.000000
vn -0.544796 -0.838569 0.000000
vn -0.544796 -0.838569 0.000000
vn -0.544796 -0.838569 -0.000000
vn -0.544796 -0.838569 -0.000000
vn -0.544796 -0.838569 0.000000
vn -0.544796 -0.838569 0.000000
vn -0.544796 -0.838569 0.000000
vn -0.544796 -0.838569 0.000000
vn -0.544796 -0.838569 0.000000
vn -0.544796 -0.838569 0.000000
vn -0.544796 -0.838569 0.000000
vn -0.544796 -0.838569 0.000000
vn -0.544796 -0.838569 0.000000
vn -0.544796 -0.838569 0.000000
vn -0.544796 -0.838569 0.000000
vn -0.544796 -0.838569 0.000001
vn 0.000000 1.000000 0.000000
vn 0.000000 1.000000 0.000000
vn 0.000000 1.000000 0.000000
vn 0.000000 1.000000 0.000000
vn 0.000000 1.000000 0.000000
vn 0.000000 1.000000 0.000000
vn 0.000000 1.000000 0.000000
vn 0.000000 1.000000 0.000000
vn 0.000000 1.000000 0.000000
vn 0.000000 1.000000 0.000000
vn 0.000000 1.000000 0.000000
vn 0.000000 1.000000 0.000000
vn 0.000000 1.000000 0.000000
vn 0.000000 1.000000 0.000000
vn 0.000000 1.000000 0.000000
vn 0.000000 1.000000 0.000000
vn 0.000000 1.000000 0.000000
vn 0.000000 1.000000 0.000000
vn 0.000000 1.000000 0.000000
vn 0.000000 1.000000 0.000000
vn 0.000000 1.000000 0.000000
vn 0.939821 -0.222487 -0.259297
vn 0.831665 -0.220904 -0.509445
vn 0.644350 -0.220824 -0.732154
vn 0.378995 -0.227304 -0.897048
vn 0.055993 -0.248619 -0.966982
vn -0.277433 -0.294190 -0.914594
vn -0.557652 -0.367555 -0.744263
vn -0.736191 -0.456155 -0.499945
vn -0.812860 -0.529859 -0.241882
vn -0.829614 -0.558337 0.000000
vn -0.812860 -0.529859 0.241882
vn -0.736191 -0.456155 0.499945
vn -0.557652 -0.367554 0.744263
vn -0.277432 -0.294190 0.914595
vn 0.055993 -0.248619 0.966982
vn 0.378995 -0.227305 0.897048
vn 0.644350 -0.220824 0.732154
vn 0.831665 -0.220904 0.509445
vn 0.939821 -0.222487 0.259298
vn 0.974767 -0.223226 0.000001
s 1
g R_arm15
usemtl lambert3SG
f 43/86/1 44/87/2 22/43/3 21/42/4
f 44/87/2 45/88/5 23/44/6 22/43/3
f 45/88/5 46/89/7 24/45/8 23/44/6
f 46/89/7 47/90/9 25/46/10 24/45/8
f 47/90/9 48/91/11 26/47/12 25/46/10
f 48/91/11 49/92/13 27/48/14 26/47/12
f 49/92/13 50/93/15 28/49/16 27/48/14
f 50/93/15 51/94/17 29/50/18 28/49/16
f 51/94/17 52/95/19 30/51/20 29/50/18
f 52/95/19 53/96/21 31/52/22 30/51/20
f 53/96/21 54/97/23 32/53/24 31/52/22
f 54/97/23 55/98/25 33/54/26 32/53/24
f 55/98/25 56/99/27 34/55/28 33/54/26
f 56/99/27 57/100/29 35/56/30 34/55/28
f 57/100/29 58/101/31 36/57/32 35/56/30
f 58/101/31 59/102/33 37/58/34 36/57/32
f 59/102/33 60/103/35 38/59/36 37/58/34
f 60/103/35 61/104/37 39/60/38 38/59/36
f 61/104/37 62/105/39 40/61/40 39/60/38
f 62/105/39 43/85/1 21/62/4 40/61/40
s 2
f 2/2/41 1/1/42 41/83/43
f 3/3/44 2/2/41 41/83/43
f 4/4/45 3/3/44 41/83/43
f 5/5/46 4/4/45 41/83/43
f 6/6/47 5/5/46 41/83/43
f 7/7/48 6/6/47 41/83/43
f 8/8/49 7/7/48 41/83/43
f 9/9/50 8/8/49 41/83/43
f 10/10/51 9/9/50 41/83/43
f 11/11/52 10/10/51 41/83/43
f 12/12/53 11/11/52 41/83/43
f 13/13/54 12/12/53 41/83/43
f 14/14/55 13/13/54 41/83/43
f 15/15/56 14/14/55 41/83/43
f 16/16/57 15/15/56 41/83/43
f 17/17/58 16/16/57 41/83/43
f 18/18/59 17/17/58 41/83/43
f 19/19/60 18/18/59 41/83/43
f 20/20/61 19/19/60 41/83/43
f 1/1/42 20/20/61 41/83/43
s 3
usemtl lambert5SG
f 21/81/62 22/80/63 42/84/64
f 22/80/63 23/79/65 42/84/64
f 23/79/65 24/78/66 42/84/64
f 24/78/66 25/77/67 42/84/64
f 25/77/67 26/76/68 42/84/64
f 26/76/68 27/75/69 42/84/64
f 27/75/69 28/74/70 42/84/64
f 28/74/70 29/73/71 42/84/64
f 29/73/71 30/72/72 42/84/64
f 30/72/72 31/71/73 42/84/64
f 31/71/73 32/70/74 42/84/64
f 32/70/74 33/69/75 42/84/64
f 33/69/75 34/68/76 42/84/64
f 34/68/76 35/67/77 42/84/64
f 35/67/77 36/66/78 42/84/64
f 36/66/78 37/65/79 42/84/64
f 37/65/79 38/64/80 42/84/64
f 38/64/80 39/63/81 42/84/64
f 39/63/81 40/82/82 42/84/64
f 40/82/82 21/81/62 42/84/64
s 1
f 1/21/83 2/22/84 44/87/2 43/86/1
f 2/22/84 3/23/85 45/88/5 44/87/2
f 3/23/85 4/24/86 46/89/7 45/88/5
f 4/24/86 5/25/87 47/90/9 46/89/7
f 5/25/87 6/26/88 48/91/11 47/90/9
f 6/26/88 7/27/89 49/92/13 48/91/11
f 7/27/89 8/28/90 50/93/15 49/92/13
f 8/28/90 9/29/91 51/94/17 50/93/15
f 9/29/91 10/30/92 52/95/19 51/94/17
f 10/30/92 11/31/93 53/96/21 52/95/19
f 11/31/93 12/32/94 54/97/23 53/96/21
f 12/32/94 13/33/95 55/98/25 54/97/23
f 13/33/95 14/34/96 56/99/27 55/98/25
f 14/34/96 15/35/97 57/100/29 56/99/27
f 15/35/97 16/36/98 58/101/31 57/100/29
f 16/36/98 17/37/99 59/102/33 58/101/31
f 17/37/99 18/38/100 60/103/35 59/102/33
f 18/38/100 19/39/101 61/104/37 60/103/35
f 19/39/101 20/40/102 62/105/39 61/104/37
f 20/40/102 1/41/83 43/85/1 62/105/39
