# This file uses centimeters as units for non-parametric coordinates.

mtllib arm2_cover.mtl
g default
v 0.174828 -0.263793 -0.056805
v 0.148717 -0.263793 -0.108049
v 0.108049 -0.263793 -0.148717
v 0.056805 -0.263793 -0.174828
v 0.000000 -0.263793 -0.183825
v -0.056805 -0.263793 -0.174828
v -0.108049 -0.263793 -0.148717
v -0.148717 -0.263793 -0.108049
v -0.174828 -0.263793 -0.056805
v -0.183825 -0.263793 0.000000
v -0.174828 -0.263793 0.056805
v -0.148717 -0.263793 0.108049
v -0.108049 -0.263793 0.148717
v -0.056805 -0.263793 0.174828
v -0.000000 -0.263793 0.183825
v 0.056805 -0.263793 0.174828
v 0.108049 -0.263793 0.148717
v 0.148717 -0.263793 0.108049
v 0.174828 -0.263793 0.056805
v 0.183825 -0.263793 0.000000
v 0.140710 0.466642 -0.080214
v 0.119695 0.436347 -0.152577
v 0.086963 0.389160 -0.210004
v 0.045719 0.329702 -0.246875
v -0.000000 0.263793 -0.259579
v -0.045719 0.197883 -0.246875
v -0.086963 0.138425 -0.210004
v -0.119695 0.091239 -0.152577
v -0.140710 0.060943 -0.080214
v -0.147951 0.050504 0.000000
v -0.140710 0.060943 0.080214
v -0.119695 0.091239 0.152577
v -0.086963 0.138425 0.210004
v -0.045719 0.197883 0.246874
v -0.000000 0.263793 0.259579
v 0.045719 0.329702 0.246874
v 0.086963 0.389160 0.210004
v 0.119695 0.436346 0.152577
v 0.140710 0.466642 0.080214
v 0.147951 0.477081 0.000000
v 0.000000 -0.263793 0.000000
v -0.000000 0.263793 0.000000
vt 0.648603 0.107966
vt 0.626409 0.064408
vt 0.591842 0.029841
vt 0.548284 0.007647
vt 0.500000 -0.000000
vt 0.451716 0.007647
vt 0.408159 0.029841
vt 0.373591 0.064409
vt 0.351397 0.107966
vt 0.343750 0.156250
vt 0.351397 0.204534
vt 0.373591 0.248091
vt 0.408159 0.282659
vt 0.451716 0.304853
vt 0.500000 0.312500
vt 0.548284 0.304853
vt 0.591841 0.282659
vt 0.626409 0.248091
vt 0.648603 0.204534
vt 0.656250 0.156250
vt 0.375000 0.312500
vt 0.387500 0.312500
vt 0.400000 0.312500
vt 0.412500 0.312500
vt 0.425000 0.312500
vt 0.437500 0.312500
vt 0.450000 0.312500
vt 0.462500 0.312500
vt 0.475000 0.312500
vt 0.487500 0.312500
vt 0.500000 0.312500
vt 0.512500 0.312500
vt 0.525000 0.312500
vt 0.537500 0.312500
vt 0.550000 0.312500
vt 0.562500 0.312500
vt 0.575000 0.312500
vt 0.587500 0.312500
vt 0.600000 0.312500
vt 0.612500 0.312500
vt 0.625000 0.312500
vt 0.375000 0.688440
vt 0.387500 0.688440
vt 0.400000 0.688440
vt 0.412500 0.688440
vt 0.425000 0.688440
vt 0.437500 0.688440
vt 0.450000 0.688440
vt 0.462500 0.688440
vt 0.475000 0.688440
vt 0.487500 0.688440
vt 0.500000 0.688440
vt 0.512500 0.688440
vt 0.525000 0.688440
vt 0.537500 0.688440
vt 0.550000 0.688440
vt 0.562500 0.688440
vt 0.575000 0.688440
vt 0.587500 0.688440
vt 0.600000 0.688440
vt 0.612500 0.688440
vt 0.625000 0.688440
vt 0.648603 0.795466
vt 0.626409 0.751908
vt 0.591842 0.717341
vt 0.548284 0.695147
vt 0.500000 0.687500
vt 0.451716 0.695147
vt 0.408159 0.717341
vt 0.373591 0.751909
vt 0.351397 0.795466
vt 0.343750 0.843750
vt 0.351397 0.892034
vt 0.373591 0.935591
vt 0.408159 0.970159
vt 0.451716 0.992353
vt 0.500000 1.000000
vt 0.548284 0.992353
vt 0.591841 0.970159
vt 0.626409 0.935591
vt 0.648603 0.892034
vt 0.656250 0.843750
vt 0.500000 0.150000
vt 0.500000 0.837500
vn 0.971459 0.035636 -0.234514
vn 0.884109 0.006254 -0.467239
vn 0.890678 0.008439 -0.454557
vn 0.972682 0.036092 -0.229318
vn 0.722374 -0.040005 -0.690345
vn 0.743558 -0.034350 -0.667789
vn 0.464960 -0.094457 -0.880278
vn 0.516576 -0.085262 -0.851986
vn 0.101772 -0.135849 -0.985488
vn 0.195478 -0.129569 -0.972111
vn -0.319405 -0.131984 -0.938382
vn -0.204544 -0.140418 -0.968733
vn -0.676357 -0.070255 -0.733216
vn -0.591139 -0.093224 -0.801164
vn -0.885332 0.015868 -0.464689
vn -0.849377 -0.004684 -0.527765
vn -0.972719 0.081547 -0.217181
vn -0.965462 0.074387 -0.249700
vn -0.994483 0.104899 -0.000000
vn -0.994483 0.104899 -0.000000
vn -0.972719 0.081547 0.217181
vn -0.965462 0.074387 0.249700
vn -0.885332 0.015868 0.464689
vn -0.849377 -0.004685 0.527766
vn -0.676356 -0.070255 0.733217
vn -0.591138 -0.093224 0.801165
vn -0.319404 -0.131984 0.938382
vn -0.204544 -0.140418 0.968733
vn 0.101772 -0.135849 0.985488
vn 0.195478 -0.129569 0.972111
vn 0.464961 -0.094457 0.880278
vn 0.516576 -0.085262 0.851986
vn 0.722374 -0.040005 0.690345
vn 0.743558 -0.034350 0.667789
vn 0.884109 0.006254 0.467239
vn 0.890678 0.008439 0.454557
vn 0.971459 0.035636 0.234515
vn 0.972682 0.036092 0.229318
vn 0.998961 0.045583 0.000001
vn 0.998961 0.045583 0.000001
vn 0.000000 -1.000000 0.000000
vn 0.000000 -1.000000 0.000000
vn 0.000000 -1.000000 0.000000
vn 0.000000 -1.000000 0.000000
vn 0.000000 -1.000000 0.000000
vn 0.000000 -1.000000 0.000000
vn 0.000000 -1.000000 0.000000
vn 0.000000 -1.000000 0.000000
vn 0.000000 -1.000000 0.000000
vn 0.000000 -1.000000 0.000000
vn 0.000000 -1.000000 0.000000
vn 0.000000 -1.000000 0.000000
vn 0.000000 -1.000000 0.000000
vn 0.000000 -1.000000 0.000000
vn 0.000000 -1.000000 0.000000
vn 0.000000 -1.000000 0.000000
vn 0.000000 -1.000000 0.000000
vn 0.000000 -1.000000 0.000000
vn 0.000000 -1.000000 0.000000
vn 0.000000 -1.000000 0.000000
vn 0.000000 -1.000000 0.000000
vn -0.821669 0.569964 -0.000000
vn -0.821669 0.569964 0.000000
vn -0.821669 0.569964 -0.000000
vn -0.821669 0.569964 0.000000
vn -0.821670 0.569964 0.000000
vn -0.821669 0.569964 0.000000
vn -0.821669 0.569964 0.000000
vn -0.821669 0.569964 -0.000000
vn -0.821669 0.569964 -0.000000
vn -0.821669 0.569964 0.000000
vn -0.821669 0.569964 -0.000000
vn -0.821669 0.569964 -0.000000
vn -0.821669 0.569964 0.000000
vn -0.821669 0.569964 0.000000
vn -0.821670 0.569964 -0.000000
vn -0.821669 0.569964 -0.000000
vn -0.821669 0.569964 -0.000000
vn -0.821669 0.569964 -0.000000
vn -0.821669 0.569964 -0.000000
vn -0.821669 0.569964 0.000000
vn -0.821669 0.569964 -0.000000
s 1
g L_arm11
usemtl initialShadingGroup
f 1/21/1 2/22/2 22/43/3 21/42/4
f 2/22/2 3/23/5 23/44/6 22/43/3
f 3/23/5 4/24/7 24/45/8 23/44/6
f 4/24/7 5/25/9 25/46/10 24/45/8
f 5/25/9 6/26/11 26/47/12 25/46/10
f 6/26/11 7/27/13 27/48/14 26/47/12
f 7/27/13 8/28/15 28/49/16 27/48/14
f 8/28/15 9/29/17 29/50/18 28/49/16
f 9/29/17 10/30/19 30/51/20 29/50/18
f 10/30/19 11/31/21 31/52/22 30/51/20
f 11/31/21 12/32/23 32/53/24 31/52/22
f 12/32/23 13/33/25 33/54/26 32/53/24
f 13/33/25 14/34/27 34/55/28 33/54/26
f 14/34/27 15/35/29 35/56/30 34/55/28
f 15/35/29 16/36/31 36/57/32 35/56/30
f 16/36/31 17/37/33 37/58/34 36/57/32
f 17/37/33 18/38/35 38/59/36 37/58/34
f 18/38/35 19/39/37 39/60/38 38/59/36
f 19/39/37 20/40/39 40/61/40 39/60/38
f 20/40/39 1/41/1 21/62/4 40/61/40
s 2
f 2/2/41 1/1/42 41/83/43
f 3/3/44 2/2/41 41/83/43
f 4/4/45 3/3/44 41/83/43
f 5/5/46 4/4/45 41/83/43
f 6/6/47 5/5/46 41/83/43
f 7/7/48 6/6/47 41/83/43
f 8/8/49 7/7/48 41/83/43
f 9/9/50 8/8/49 41/83/43
f 10/10/51 9/9/50 41/83/43
f 11/11/52 10/10/51 41/83/43
f 12/12/53 11/11/52 41/83/43
f 13/13/54 12/12/53 41/83/43
f 14/14/55 13/13/54 41/83/43
f 15/15/56 14/14/55 41/83/43
f 16/16/57 15/15/56 41/83/43
f 17/17/58 16/16/57 41/83/43
f 18/18/59 17/17/58 41/83/43
f 19/19/60 18/18/59 41/83/43
f 20/20/61 19/19/60 41/83/43
f 1/1/42 20/20/61 41/83/43
s 3
f 21/81/62 22/80/63 42/84/64
f 22/80/63 23/79/65 42/84/64
f 23/79/65 24/78/66 42/84/64
f 24/78/66 25/77/67 42/84/64
f 25/77/67 26/76/68 42/84/64
f 26/76/68 27/75/69 42/84/64
f 27/75/69 28/74/70 42/84/64
f 28/74/70 29/73/71 42/84/64
f 29/73/71 30/72/72 42/84/64
f 30/72/72 31/71/73 42/84/64
f 31/71/73 32/70/74 42/84/64
f 32/70/74 33/69/75 42/84/64
f 33/69/75 34/68/76 42/84/64
f 34/68/76 35/67/77 42/84/64
f 35/67/77 36/66/78 42/84/64
f 36/66/78 37/65/79 42/84/64
f 37/65/79 38/64/80 42/84/64
f 38/64/80 39/63/81 42/84/64
f 39/63/81 40/82/82 42/84/64
f 40/82/82 21/81/62 42/84/64
